<svg xmlns="http://www.w3.org/2000/svg" version="1.1" xmlns:xlink="http://www.w3.org/1999/xlink" xmlns:svgjs="http://svgjs.com/svgjs" width="512" height="512" x="0" y="0" viewBox="0 0 32 32" style="enable-background:new 0 0 512 512" xml:space="preserve"><g><path d="M30 24v4c0 1.103-.897 2-2 2H4c-1.103 0-2-.897-2-2v-4a1 1 0 0 1 2 0v4h24v-4a1 1 0 0 1 2 0z" fill="#000000" data-original="#000000"></path><path d="M8.293 16.707a.999.999 0 1 1 1.414-1.414L15 20.586V3a1 1 0 0 1 2 0v17.586l5.293-5.293a.999.999 0 1 1 1.414 1.414l-7 7a1.001 1.001 0 0 1-1.415 0z" fill="#000000" data-original="#000000"></path></g></svg>