<svg xmlns="http://www.w3.org/2000/svg" version="1.1" xmlns:xlink="http://www.w3.org/1999/xlink" xmlns:svgjs="http://svgjs.com/svgjs" width="512" height="512" x="0" y="0" viewBox="0 0 512 512" style="enable-background:new 0 0 512 512" xml:space="preserve" class=""><g><linearGradient id="a" x1="256" x2="256" y1="446" y2="70" gradientTransform="matrix(1 0 0 -1 0 514)" gradientUnits="userSpaceOnUse"><stop offset="0" style="stop-color:#2AF598"></stop><stop offset="1" style="stop-color:#009EFD"></stop></linearGradient><path d="M452 68H60C26.916 68 0 94.916 0 128v256c0 33.084 26.916 60 60 60h392c33.084 0 60-26.916 60-60V128c0-33.084-26.916-60-60-60zm-3.646 40L256 251.074 63.646 108h384.708zM452 404H60c-11.028 0-20-8.972-20-20V140.263l216 160.663 216-160.663V384c0 11.028-8.972 20-20 20z" style="fill:url(#a);" fill=""></path></g></svg>