<svg xmlns="http://www.w3.org/2000/svg" version="1.1" xmlns:xlink="http://www.w3.org/1999/xlink" xmlns:svgjs="http://svgjs.com/svgjs" width="512" height="512" x="0" y="0" viewBox="0 0 32 32" style="enable-background:new 0 0 512 512" xml:space="preserve" class=""><g><linearGradient id="a" x1="12.768" x2="19.232" y1="14.931" y2="1.069" gradientUnits="userSpaceOnUse"><stop stop-opacity="0.84" stop-color="#66fde6" offset="0"></stop><stop stop-opacity="1" stop-color="#f3f59d" offset="0.5212355212355212"></stop></linearGradient><linearGradient xlink:href="#a" id="b" y1="22.931" y2="9.069"></linearGradient><linearGradient xlink:href="#a" id="c" y1="30.931" y2="17.069"></linearGradient><path fill="url(#a)" d="M5 11h22c1.65 0 3-1.35 3-3s-1.35-3-3-3H5C3.35 5 2 6.35 2 8s1.35 3 3 3z" data-original="url(#a)"></path><path fill="url(#b)" d="M5 19h22c1.65 0 3-1.35 3-3s-1.35-3-3-3H5c-1.65 0-3 1.35-3 3s1.35 3 3 3z" data-original="url(#b)"></path><path fill="url(#c)" d="M5 27h22c1.65 0 3-1.35 3-3s-1.35-3-3-3H5c-1.65 0-3 1.35-3 3s1.35 3 3 3z" data-original="url(#c)" class=""></path></g></svg>