<svg xmlns="http://www.w3.org/2000/svg" version="1.1" xmlns:xlink="http://www.w3.org/1999/xlink" xmlns:svgjs="http://svgjs.com/svgjs" width="512" height="512" x="0" y="0" viewBox="0 0 24 24" style="enable-background:new 0 0 512 512" xml:space="preserve" class=""><g transform="matrix(6.123233995736766e-17,1,-1,6.123233995736766e-17,24,0)"><path d="M4 13h16a1 1 0 0 0 0-2H4a1 1 0 0 0 0 2zM20 5H4a1 1 0 0 0 0 2h16a1 1 0 0 0 0-2zM4 19h16a1 1 0 0 0 0-2H4a1 1 0 0 0 0 2z" fill="#000000" data-original="#000000" class=""></path></g></svg>